<?xml version="1.0" encoding="UTF-8" standalone="no"?>
<!-- Created with Inkscape (http://www.inkscape.org/) -->

<svg
   width="2000"
   height="866.979"
   viewBox="0 0 529.16665 229.38819"
   version="1.1"
   id="svg1"
   sodipodi:docname="logo.svg"
   inkscape:version="1.3.2 (091e20e, 2023-11-25, custom)"
   xmlns:inkscape="http://www.inkscape.org/namespaces/inkscape"
   xmlns:sodipodi="http://sodipodi.sourceforge.net/DTD/sodipodi-0.dtd"
   xmlns="http://www.w3.org/2000/svg"
   xmlns:svg="http://www.w3.org/2000/svg">
  <sodipodi:namedview
     id="namedview1"
     pagecolor="#505050"
     bordercolor="#eeeeee"
     borderopacity="1"
     inkscape:showpageshadow="0"
     inkscape:pageopacity="0"
     inkscape:pagecheckerboard="0"
     inkscape:deskcolor="#505050"
     inkscape:zoom="0.27895363"
     inkscape:cx="751.02089"
     inkscape:cy="941.01663"
     inkscape:window-width="1920"
     inkscape:window-height="1111"
     inkscape:window-x="-9"
     inkscape:window-y="-9"
     inkscape:window-maximized="1"
     inkscape:current-layer="layer1" />
  <defs
     id="defs1" />
  <g
     id="layer1">
    <g
       id="g24"
       transform="matrix(0.76804135,0,0,0.76804135,-591.8494,-2624.8591)"
       style="display:inline">
      <path
         style="font-size:423.435px;font-family:Thesignature;-inkscape-font-specification:Thesignature;text-align:end;text-anchor:end;fill:#747a88;stroke-width:11.3248;stroke-linecap:round"
         d="m 967.35087,3580.8812 c 0.42344,-0.4234 0.42344,-1.2703 0.42344,-1.2703 -1.27031,-0.8468 -2.11718,-1.6937 -3.81092,-2.5406 -11.00931,-5.9281 -22.44205,-9.3155 -35.1451,-10.1624 -14.82023,-1.2703 -30.06389,-0.8469 -44.03724,5.0812 -24.1358,9.739 -30.48732,30.9108 -16.09053,52.0825 7.19839,11.0093 16.51396,19.478 26.6764,27.0999 36.41541,26.6764 77.48861,39.3794 122.37268,37.6857 15.6671,-0.4235 31.3342,-2.9641 45.3076,-10.5859 17.3608,-9.739 26.253,-24.1358 24.5592,-44.4607 -0.4234,-5.5046 -1.2703,-10.5859 -3.3875,-16.5139 -4.2343,-15.6671 -12.2796,-30.4874 -21.1717,-44.0373 -9.3156,-14.8202 -18.6312,-28.7936 -27.5233,-43.1904 -6.3515,-10.1624 -11.0093,-20.3248 -13.5499,-32.181 -3.8109,-16.0905 0,-29.217 12.703,-40.2263 3.811,-3.3875 8.4687,-6.775 13.1265,-9.3156 24.1358,-13.5499 50.3888,-20.3249 77.9121,-21.1718 6.3515,0 12.703,0.8469 19.0545,2.5406 10.5859,1.6938 15.6671,9.3156 16.0906,19.4781 0.8468,8.0452 -0.8469,15.2436 -5.0813,22.0186 -5.928,9.739 -12.2796,19.0546 -19.9014,27.9467 -11.0093,12.2796 -23.2889,24.1358 -35.1451,35.992 -0.8469,1.2703 -3.3875,2.5406 -2.1172,5.5046 5.5047,0 8.8922,-3.3875 12.2796,-6.7749 12.2797,-11.0094 24.9827,-23.289 36.4154,-35.5686 6.3516,-5.9281 11.8562,-14.3968 16.514,-21.5952 5.5047,-8.8921 8.0453,-19.0545 7.1984,-29.217 -0.8469,-13.9733 -8.0453,-22.8655 -21.1717,-27.0998 -5.0813,-2.1172 -11.0094,-2.5406 -16.0906,-2.5406 -29.217,-1.6938 -56.3168,5.0812 -82.5698,16.9374 -9.739,4.6578 -19.0546,10.5858 -26.6764,18.6311 -12.7031,13.1265 -16.9374,28.3702 -12.7031,46.5779 4.2344,19.478 15.2437,36.4154 25.8296,52.9293 8.8921,14.8203 18.2077,28.7936 27.0998,43.1904 5.9281,9.739 9.739,19.9014 11.4328,31.3342 2.964,18.6311 -0.8469,32.6045 -22.0187,42.7669 -0.4234,0.4235 -0.8468,0.4235 -1.6937,0.4235 -10.5859,4.6577 -21.1717,6.7749 -32.1811,7.1984 -28.79353,1.6937 -55.89337,-3.3875 -82.14634,-14.8203 -19.47801,-8.8921 -37.68572,-19.9014 -52.50594,-35.1451 -5.50466,-5.9281 -10.16244,-11.4327 -12.27962,-18.6311 -3.38748,-9.739 -0.84687,-17.3608 7.62183,-22.8655 6.77496,-4.6578 14.82023,-7.6218 22.86549,-8.4687 11.85618,-0.8469 24.1358,0 35.56854,0.8469 9.31557,0.8468 18.63114,1.2703 27.94671,2.1171 z m 243.89833,0.4235 c 7.6218,-14.8202 14.8202,-31.3342 22.0186,-47.8482 1.6937,-3.8109 2.1171,-7.1984 -0.8469,-9.739 -1.6937,-2.964 -5.0812,-1.6937 -8.4687,-0.8469 -2.5406,0.8469 -4.6578,0.8469 -7.1984,1.2704 -3.3875,0 -7.1984,0 -10.5859,0.8468 -12.703,3.3875 -24.1358,8.8922 -34.2982,18.2077 -4.6578,3.3875 -8.4687,8.0453 -11.4327,12.7031 -2.5407,3.3875 -3.3875,7.6218 -0.8469,11.8562 3.3875,3.3874 7.6218,5.0812 11.8562,2.964 6.3515,-1.6937 11.4327,-3.3875 17.7842,-6.775 6.775,-3.3874 19.478,-13.5499 26.6764,-16.9374 -0.8468,0 -2.1171,13.55 -11.4327,27.5233 -5.0812,10.1625 -15.2437,17.7843 -26.253,21.1718 -28.7936,12.2796 -58.434,24.5592 -85.5338,42.3435 -9.3156,7.1984 -19.4781,13.9733 -29.2171,22.0186 -4.6577,4.2343 -9.3155,10.1624 -12.2796,16.0905 -5.5046,9.3156 -0.8468,18.6312 9.739,20.7483 4.6578,1.2703 9.739,1.6938 15.2437,1.2703 21.1717,-1.6937 39.3794,-10.5858 57.1637,-21.5951 27.5233,-17.3609 47.8482,-42.3435 64.7856,-69.8668 2.964,-5.0812 7.1984,-11.4328 11.8561,-13.5499 13.9734,-4.6578 27.0999,-9.739 40.2264,-13.9734 26.2529,-9.3156 10.1624,-0.4234 36.4154,-9.3156 2.964,-0.4234 6.3515,-2.5406 9.3156,-4.2343 2.1171,-1.2703 4.2343,-4.6578 2.1171,-7.1984 -1.6937,-2.1172 -5.0812,-2.9641 -7.1984,-3.3875 -1.6937,-0.4234 -3.8109,0.4234 -5.9281,1.2703 -35.1451,12.7031 -28.3701,9.3156 -63.0918,21.5952 z m -127.0305,107.129 c -32.6045,7.6219 -25.4061,-10.5858 -4.6578,-25.4061 24.1358,-19.9014 77.912,-52.9293 108.8228,-61.398 -19.478,35.9919 -63.5153,75.3714 -104.165,86.8041 z m 93.1557,-133.8054 c 7.6218,-10.5859 27.5232,-19.0546 38.5325,-19.0546 -15.6671,15.6671 -46.1544,33.4514 -38.5325,19.0546 z"
         id="text1"
         aria-label="Sg" />
      <path
         style="font-size:274.59px;font-family:Thesignature;-inkscape-font-specification:Thesignature;text-align:end;text-anchor:end;fill:#747a88;stroke-width:7.34392;stroke-linecap:round"
         d="m 1381.5641,3534.7638 c -19.2213,26.3606 -37.8935,52.4467 -56.5656,79.0819 -17.5737,24.4385 -35.1475,48.6024 -51.6229,73.5901 -4.668,6.8648 -8.5123,14.5533 -12.6311,22.2418 -1.0984,1.9221 -2.4713,4.3935 1.3729,6.5902 1.6476,-1.373 3.2951,-3.2951 4.668,-4.6681 l 32.9508,-49.4262 63.4303,-88.4179 c 9.6107,-13.4549 24.7131,-32.1271 34.5984,-46.1311 4.668,-6.8648 1.9221,-12.3566 -5.7664,-7.1394 z m 19.7706,67.2745 c 0.5492,4.1189 3.5697,5.2173 6.3156,5.7664 8.2377,2.1968 4.3934,1.6476 12.6311,3.2951 l 24.4385,6.041 c 1.373,0.2746 2.4713,0.8238 5.2172,2.1967 -5.7663,2.1967 -10.1598,4.668 -14.8278,6.041 l -40.6393,13.1803 c -1.6476,0.5492 -3.8443,1.373 -5.7664,2.1967 -2.1967,0.2746 -4.1189,1.6476 -3.5697,3.8443 0.5492,2.7459 3.2951,2.1967 5.2172,1.9221 3.5697,-1.0983 7.4139,-2.1967 11.5328,-3.0205 l 44.7582,-15.9262 c 3.5696,-1.0983 6.3155,-2.4713 9.336,-4.3934 2.1967,-0.8238 3.8443,-2.7459 3.5697,-5.2172 0,-2.7459 -1.9221,-4.1189 -4.3934,-4.9427 -5.2173,-1.6475 -11.2582,-3.295 -17.2992,-4.9426 -12.6312,-3.2951 -13.4549,-3.5696 -26.9098,-6.8647 -2.7459,-0.5492 -6.041,-2.1967 -9.6107,0.8237 z"
         id="text23"
         aria-label="/&gt;" />
      <path
         style="font-size:274.59px;font-family:Thesignature;-inkscape-font-specification:Thesignature;text-align:end;text-anchor:end;fill:#747a88;stroke-width:7.34392;stroke-linecap:round"
         d="m 781.39203,3527.0465 c 1.37295,-1.3729 1.64754,-1.9221 2.19672,-2.1967 12.90573,-5.4918 25.53687,-10.709 38.4426,-16.75 7.96311,-3.8442 15.65163,-7.9631 23.61474,-12.0819 1.37295,-0.8238 2.7459,-1.6476 3.56967,-2.7459 0.27459,-1.0984 0.27459,-2.7459 0.27459,-3.5697 -0.54918,-0.8238 -2.19672,-1.373 -2.7459,-1.373 -2.47131,0.5492 -4.39344,1.373 -6.04098,2.1968 -6.59016,3.0204 -13.18032,6.5901 -19.77048,9.336 -13.7295,6.3156 -27.459,12.3566 -41.1885,18.3975 -2.47131,1.0984 -4.94262,2.4714 -7.13934,4.3935 -3.02049,2.7459 -2.47131,6.041 0.54918,8.7869 2.19672,1.0983 4.66803,2.7459 6.86475,3.0204 13.45491,3.5697 26.90982,6.5902 40.36473,9.3361 3.02049,0.8238 6.04098,-0.5492 8.78688,-2.1967 -2.19672,-3.5697 -5.76639,-4.668 -9.06147,-5.4918 l -28.00818,-6.041 z"
         id="text24"
         aria-label="&lt;" />
    </g>
  </g>
</svg>
