<?xml version="1.0" encoding="UTF-8" standalone="no"?>
<!-- Created with Inkscape (http://www.inkscape.org/) -->

<svg
   width="2000"
   height="2000"
   viewBox="0 0 2000 2000"
   version="1.1"
   id="svg1"
   xml:space="preserve"
   inkscape:version="1.3.2 (091e20e, 2023-11-25, custom)"
   sodipodi:docname="Moon.svg"
   xmlns:inkscape="http://www.inkscape.org/namespaces/inkscape"
   xmlns:sodipodi="http://sodipodi.sourceforge.net/DTD/sodipodi-0.dtd"
   xmlns="http://www.w3.org/2000/svg"
   xmlns:svg="http://www.w3.org/2000/svg"><sodipodi:namedview
     id="namedview1"
     pagecolor="#505050"
     bordercolor="#eeeeee"
     borderopacity="1"
     inkscape:showpageshadow="0"
     inkscape:pageopacity="0"
     inkscape:pagecheckerboard="0"
     inkscape:deskcolor="#505050"
     inkscape:document-units="px"
     inkscape:zoom="0.20546875"
     inkscape:cx="1126.692"
     inkscape:cy="868.74525"
     inkscape:window-width="1920"
     inkscape:window-height="1111"
     inkscape:window-x="-9"
     inkscape:window-y="-9"
     inkscape:window-maximized="1"
     inkscape:current-layer="layer1" /><defs
     id="defs1" /><g
     inkscape:label="Layer 1"
     inkscape:groupmode="layer"
     id="layer1"><path
       style="fill:#747a88;fill-opacity:1"
       d="m 186.11849,890.02968 c 7.14838,-82.9748 29.89821,-177.0907 60.4111,-249.9203 65.56506,-156.4937 175.52606,-290.1288 315.90256,-383.915 64.1287,-42.8446 158.04686,-99.1376 138.54523,-47.0069 -18.33449,49.0109 -34.95629,117.2478 -43.71066,179.4441 -6.05384,43.01 -5.18046,177.8194 1.44266,222.6797 55.62427,376.7596 344.12752,668.01562 717.21682,724.06012 58.579,8.7995 157.3971,11.0742 212.3569,4.8882 71.138,-8.007 155.9112,-27.7273 206.843,-48.1167 53.6261,-23.4193 -23.8706,89.3427 -32.8953,104.9204 -134.7986,225.927 -360.2845,374.1193 -622.7476,409.2779 -58.2399,7.8017 -172.23164,7.1102 -226.613,-1.3745 C 667.38483,1766.6655 461.16908,1636.3952 325.94369,1434.1944 247.03613,1316.2049 198.64357,1179.2307 186.29568,1038.9234 Z"
       id="path1-4"
       sodipodi:nodetypes="csssssssssssscc" /></g></svg>
