<?xml version="1.0" encoding="UTF-8" standalone="no"?>
<!-- Created with Inkscape (http://www.inkscape.org/) -->

<svg
   width="2000"
   height="2000"
   viewBox="0 0 2000 2000"
   version="1.1"
   id="svg1"
   xml:space="preserve"
   inkscape:version="1.3.2 (091e20e, 2023-11-25, custom)"
   sodipodi:docname="Sun.svg"
   xmlns:inkscape="http://www.inkscape.org/namespaces/inkscape"
   xmlns:sodipodi="http://sodipodi.sourceforge.net/DTD/sodipodi-0.dtd"
   xmlns="http://www.w3.org/2000/svg"
   xmlns:svg="http://www.w3.org/2000/svg"><sodipodi:namedview
     id="namedview1"
     pagecolor="#505050"
     bordercolor="#eeeeee"
     borderopacity="1"
     inkscape:showpageshadow="0"
     inkscape:pageopacity="0"
     inkscape:pagecheckerboard="0"
     inkscape:deskcolor="#505050"
     inkscape:document-units="px"
     inkscape:zoom="0.20546875"
     inkscape:cx="912.54753"
     inkscape:cy="1326.2357"
     inkscape:window-width="1920"
     inkscape:window-height="1111"
     inkscape:window-x="-9"
     inkscape:window-y="-9"
     inkscape:window-maximized="1"
     inkscape:current-layer="layer1" /><defs
     id="defs1" /><g
     inkscape:label="Layer 1"
     inkscape:groupmode="layer"
     id="layer1"><path
       id="ellipse8"
       style="fill:#747a88;stroke:#747a88;stroke-width:3.79316;stroke-linecap:round"
       transform="matrix(0.70710678,0.70710678,0.70710678,-0.70710678,0,0)"
       d="m 1531.1086,-730.03802 a 116.89512,166.79588 0 0 1 -116.8951,166.79588 116.89512,166.79588 0 0 1 -116.8951,-166.79588 116.89512,166.79588 0 0 1 116.8951,-166.79589 116.89512,166.79588 0 0 1 116.8951,166.79589 z" /><path
       id="path1"
       style="fill:#747a88;stroke:#747a88;stroke-width:5.1463;stroke-linecap:round"
       d="M 1456.9203,1000 A 456.92032,456.92032 0 0 1 1000,1456.9203 456.92032,456.92032 0 0 1 543.07968,1000 456.92032,456.92032 0 0 1 1000,543.07968 456.92032,456.92032 0 0 1 1456.9203,1000 Z" /><path
       id="path2"
       style="fill:#747a88;stroke:#747a88;stroke-width:3.79316;stroke-linecap:round"
       d="M 1116.8951,270.15244 A 116.89512,166.79588 0 0 1 1000,436.94832 116.89512,166.79588 0 0 1 883.10488,270.15244 116.89512,166.79588 0 0 1 1000,103.35655 116.89512,166.79588 0 0 1 1116.8951,270.15244 Z" /><path
       id="ellipse2"
       style="fill:#747a88;stroke:#747a88;stroke-width:3.79316;stroke-linecap:round"
       d="M 1116.8951,1736.2025 A 116.89512,166.79588 0 0 1 1000,1902.9984 116.89512,166.79588 0 0 1 883.10488,1736.2025 116.89512,166.79588 0 0 1 1000,1569.4066 a 116.89512,166.79588 0 0 1 116.8951,166.7959 z" /><path
       id="ellipse3"
       style="fill:#747a88;stroke:#747a88;stroke-width:3.79316;stroke-linecap:round"
       transform="rotate(90)"
       d="M 1116.8951,-1733.025 A 116.89512,166.79588 0 0 1 1000,-1566.2291 116.89512,166.79588 0 0 1 883.10488,-1733.025 116.89512,166.79588 0 0 1 1000,-1899.8209 a 116.89512,166.79588 0 0 1 116.8951,166.7959 z" /><path
       id="ellipse4"
       style="fill:#747a88;stroke:#747a88;stroke-width:3.79316;stroke-linecap:round"
       transform="rotate(90)"
       d="M 1116.8951,-273.85776 A 116.89512,166.79588 0 0 1 1000,-107.06187 116.89512,166.79588 0 0 1 883.10488,-273.85776 116.89512,166.79588 0 0 1 1000,-440.65364 a 116.89512,166.79588 0 0 1 116.8951,166.79588 z" /><path
       id="ellipse5"
       style="fill:#747a88;stroke:#747a88;stroke-width:3.79316;stroke-linecap:round"
       transform="rotate(135)"
       d="M 114.46169,-696.34283 A 116.89512,166.79588 0 0 1 -2.4334254,-529.54695 116.89512,166.79588 0 0 1 -119.32854,-696.34283 116.89512,166.79588 0 0 1 -2.4334254,-863.13872 116.89512,166.79588 0 0 1 114.46169,-696.34283 Z" /><path
       id="ellipse6"
       style="fill:#747a88;stroke:#747a88;stroke-width:3.79316;stroke-linecap:round"
       transform="rotate(135)"
       d="M 121.76206,-2153.9854 A 116.89512,166.79588 0 0 1 4.8669391,-1987.1895 116.89512,166.79588 0 0 1 -112.02818,-2153.9854 116.89512,166.79588 0 0 1 4.8669391,-2320.7812 116.89512,166.79588 0 0 1 121.76206,-2153.9854 Z" /><path
       id="ellipse7"
       style="fill:#747a88;stroke:#747a88;stroke-width:3.79316;stroke-linecap:round"
       transform="matrix(0.70710678,0.70710678,0.70710678,-0.70710678,0,0)"
       d="M 1535.9756,725.17108 A 116.89512,166.79588 0 0 1 1419.0804,891.96696 116.89512,166.79588 0 0 1 1302.1853,725.17108 116.89512,166.79588 0 0 1 1419.0804,558.3752 116.89512,166.79588 0 0 1 1535.9756,725.17108 Z" /></g></svg>
